<svg id="레이어_1" data-name="레이어 1" xmlns="http://www.w3.org/2000/svg" viewBox="0 0 600 600"><title>playtime_icn</title><rect x="91.31" y="180.6" width="10.71" height="242.09"/><rect x="129.87" y="180.6" width="32.14" height="242.09"/><rect x="183.43" y="180.6" width="21.42" height="242.09"/><rect x="222" y="180.6" width="8.57" height="242.09"/><rect x="247.7" y="180.6" width="8.57" height="242.09"/><rect x="274.48" y="181.67" width="8.57" height="242.09"/><rect x="300.19" y="181.67" width="10.71" height="242.09"/><rect x="430.88" y="181.67" width="10.71" height="242.09"/><rect x="458.73" y="181.67" width="10.71" height="242.09"/><rect x="484.44" y="181.67" width="10.71" height="242.09"/><rect x="325.9" y="181.67" width="21.42" height="242.09"/><rect x="377.32" y="181.67" width="32.14" height="242.09"/><path d="M536.57,128.11H51a16.46,16.46,0,0,0-16.44,16.43V454.46A16.46,16.46,0,0,0,51,470.89h485.6A16.45,16.45,0,0,0,553,454.46V144.54A16.45,16.45,0,0,0,536.57,128.11Zm14.29,326.35a14.31,14.31,0,0,1-14.29,14.29H51a14.31,14.31,0,0,1-14.29-14.29V144.54A14.31,14.31,0,0,1,51,130.25h485.6a14.31,14.31,0,0,1,14.29,14.29Z"/></svg>